<svg width="134" height="32" viewBox="0 0 134 32" fill="none" xmlns="http://www.w3.org/2000/svg">
<g clip-path="url(#clip0_10001_86)">
<path d="M9.99908 18.0256C9.39429 17.3913 8.4468 16.9003 7.19691 16.6138L5.20113 16.1432C4.47538 15.9795 3.95124 15.7545 3.62869 15.4885C3.34645 15.243 3.20534 14.9361 3.20534 14.5269C3.20534 14.0767 3.42709 13.688 3.8706 13.3811C4.33427 13.0537 4.93905 12.89 5.66479 12.89C6.43085 12.89 7.01548 13.0537 7.37835 13.4015C7.76138 13.7494 8.04361 14.1586 8.20489 14.5882L8.30568 14.8338L10.8055 14.179L10.7047 13.8721C10.5031 13.1969 10.1805 12.6036 9.75716 12.0921C9.33382 11.5806 8.76935 11.1714 8.10409 10.8645C7.43883 10.578 6.61229 10.4348 5.68495 10.4348C4.75762 10.4348 3.83028 10.6189 3.04406 10.9668C2.25784 11.3146 1.6329 11.8261 1.18939 12.4399C0.725723 13.0742 0.483809 13.8312 0.483809 14.6496C0.483809 15.6726 0.806361 16.532 1.45146 17.1867C2.07641 17.821 3.0239 18.312 4.27379 18.5985L6.47117 19.1304C7.07596 19.2737 7.51946 19.4783 7.78154 19.7442C8.04361 19.9898 8.16457 20.2967 8.16457 20.6854C8.16457 21.1356 7.94281 21.5243 7.47915 21.8721C6.99532 22.2404 6.3099 22.4041 5.44304 22.4041C4.7173 22.4041 4.11251 22.2404 3.64885 21.9335C3.18518 21.6266 2.88279 21.156 2.70135 20.5013L2.62071 20.2148L0.0201416 20.8491L0.08062 21.1356C0.241896 21.954 0.584607 22.6496 1.06843 23.2225C1.55226 23.7954 2.1772 24.2251 2.92311 24.4911C3.66901 24.7775 4.5157 24.9207 5.44304 24.9207C6.51149 24.9207 7.47914 24.7366 8.28552 24.3683C9.11206 24 9.77732 23.468 10.241 22.8133C10.7047 22.1586 10.9466 21.3811 10.9466 20.5422C10.9466 19.5396 10.624 18.7008 9.99908 18.046V18.0256Z" fill="#6528D3"/>
<path d="M22.2763 10.578L19.3733 18.7212C19.0911 19.5192 18.8492 20.3171 18.6476 21.0946C18.446 20.3171 18.2041 19.5192 17.9218 18.7212L15.039 10.578H12.0554L17.2162 24.3683L16.8735 25.3708C16.6719 25.9642 16.4502 26.3939 16.1881 26.6803C15.9462 26.9258 15.7043 27.0691 15.4019 27.1304C15.0995 27.1714 14.7366 27.1304 14.3334 27.0486L13.8295 26.9054L13.1239 29.2992L13.3456 29.422C13.4867 29.4834 13.6883 29.5448 13.9907 29.6061C14.2931 29.6675 14.6358 29.688 15.039 29.688C15.7043 29.688 16.3091 29.5652 16.8332 29.3402C17.3775 29.0946 17.8412 28.7263 18.2444 28.2353C18.6274 27.7442 18.9701 27.1304 19.2524 26.3939L25.1994 10.578H22.236H22.2763Z" fill="#6528D3"/>
<path d="M37.5772 12.8286C37.174 12.0307 36.6096 11.4169 35.8838 11.0281C35.1783 10.6394 34.3316 10.4348 33.4042 10.4348C32.3559 10.4348 31.4084 10.7212 30.6222 11.2737C30.2593 11.5192 29.957 11.8465 29.6747 12.2353V10.5985H27.0137V24.6138H29.7352V16.266C29.7352 15.5499 29.8763 14.9565 30.1384 14.4655C30.4005 13.9744 30.7633 13.6061 31.2068 13.3606C31.6705 13.1151 32.1947 12.9719 32.7591 12.9719C33.6058 12.9719 34.2308 13.2174 34.7146 13.7494C35.1984 14.2609 35.4403 15.0179 35.4403 15.9591V24.5934H38.1619V15.7749C38.1619 14.5882 37.9603 13.6061 37.5772 12.8082V12.8286Z" fill="#6528D3"/>
<path d="M46.9514 22.0563L46.6691 22.1177C46.5079 22.1586 46.3063 22.179 46.1047 22.22C45.9232 22.2404 45.762 22.2609 45.641 22.2609C45.1773 22.2609 44.8548 22.1586 44.6734 21.954C44.4919 21.7289 44.3911 21.3606 44.3911 20.8491V13.0742H47.1127V10.6189H44.3911V7.42712H41.6696V10.6189H39.694V13.0742H41.6696V21.0128C41.6696 22.1995 42.0325 23.1202 42.7179 23.7954C43.4033 24.4501 44.371 24.798 45.6007 24.798C45.8829 24.798 46.1853 24.7775 46.4675 24.7366C46.7699 24.6957 47.032 24.6343 47.2739 24.532L47.536 24.4297L46.9715 22.0563H46.9514Z" fill="#6528D3"/>
<path d="M59.2487 12.8082C58.8858 12.133 58.402 11.6215 57.8375 11.2737C57.2932 10.9258 56.7086 10.7008 56.1038 10.5985C55.5192 10.4962 54.995 10.4348 54.5515 10.4348C53.8459 10.4348 53.1403 10.5371 52.4146 10.7417C51.6889 10.9463 51.0034 11.2941 50.3987 11.7647C49.7939 12.2558 49.2899 12.9309 48.927 13.7903L48.8061 14.0972L51.4066 14.977L51.5276 14.7315C51.6485 14.445 51.8501 14.179 52.1122 13.8926C52.3541 13.6266 52.6968 13.4015 53.1 13.2174C53.5032 13.0332 54.0072 12.9514 54.5918 12.9514C55.1764 12.9514 55.62 13.0537 55.9828 13.2379C56.3457 13.422 56.5876 13.6675 56.769 13.9949C56.9505 14.3427 57.0311 14.7724 57.0311 15.3453C57.0311 15.6113 56.9303 15.7136 56.8295 15.7749C56.6279 15.8977 56.2852 15.9795 55.8417 16.0205C55.3377 16.0818 54.6926 16.1637 53.9064 16.266C53.2815 16.3478 52.6565 16.4501 52.0517 16.5934C51.4268 16.7366 50.8422 16.9616 50.318 17.2481C49.7737 17.555 49.3302 17.9642 49.0076 18.4962C48.6851 19.0281 48.5037 19.7033 48.5037 20.5217C48.5037 21.4629 48.7254 22.2609 49.1488 22.9361C49.5721 23.5908 50.1769 24.1023 50.9026 24.4501C51.6284 24.7775 52.4348 24.9616 53.3016 24.9616C54.0878 24.9616 54.7733 24.8389 55.3377 24.5934C55.9022 24.3478 56.3659 24.0614 56.7287 23.6931C56.8497 23.5703 56.9706 23.4271 57.0714 23.3043V24.6343H59.7728V15.4885C59.7728 14.3836 59.5914 13.5038 59.2285 12.8286L59.2487 12.8082ZM57.0513 18.1074V19.4373C57.0513 19.9284 56.9303 20.399 56.6683 20.8491C56.4062 21.2992 56.0433 21.6675 55.5393 21.954C55.0353 22.2404 54.4305 22.3836 53.6846 22.3836C53.2008 22.3836 52.7573 22.3018 52.3944 22.1586C52.0316 22.0153 51.7493 21.8107 51.5477 21.5448C51.3461 21.2788 51.2655 20.9719 51.2655 20.5627C51.2655 20.133 51.3663 19.7852 51.5881 19.5601C51.8098 19.2941 52.1324 19.0895 52.5356 18.9668C52.9589 18.8235 53.4226 18.7212 53.9064 18.6598L54.7329 18.5575C55.0958 18.5166 55.4587 18.4552 55.8417 18.3939C56.2247 18.3325 56.5674 18.2506 56.8698 18.1688C56.9303 18.1688 56.9908 18.1279 57.0513 18.1074Z" fill="#6528D3"/>
<path d="M72.4531 15.9386L72.3927 15.8568L70.3364 12.7468L64.2281 3.58057L64.1071 3.39642H59.7124L68.26 16L57.4142 32H61.7283L70.2356 19.2532L72.3524 16.0614L72.4531 15.9386Z" fill="#6528D3"/>
<path d="M73.0176 14.9565L83.1578 0H78.8235L70.9412 11.8261L73.0176 14.9565Z" fill="#6528D3"/>
<path d="M70.8403 20.1739L76.3237 28.4194L76.4447 28.6036H80.8394L72.9772 16.9616L70.8403 20.1739Z" fill="#6528D3"/>
<path d="M94.3464 10.578L92.6731 16.6547C92.4514 17.4936 92.2095 18.4143 91.9474 19.4374C91.8668 19.7852 91.7861 20.133 91.7055 20.5013C91.6249 20.133 91.5442 19.7647 91.4636 19.4169C91.2217 18.3939 90.9999 17.4732 90.7781 16.6547L89.1654 10.578H86.4439L84.7908 16.6547C84.569 17.5141 84.3271 18.4348 84.0852 19.4578C84.0046 19.8056 83.9239 20.1535 83.8433 20.5013C83.7627 20.1125 83.6619 19.7238 83.5812 19.376C83.3191 18.353 83.0974 17.4527 82.8756 16.6547L81.2024 10.578H78.2994L82.4926 24.5934H85.0529L86.8269 18.312C87.0083 17.7187 87.1696 17.0844 87.3309 16.4297C87.472 15.8568 87.6333 15.2634 87.7744 14.6496C87.9155 15.243 88.0566 15.8363 88.2179 16.4092C88.3792 17.0435 88.5606 17.6778 88.7219 18.2916L90.4959 24.5729H93.0562L97.2493 10.5576H94.3464V10.578Z" fill="#6528D3"/>
<path d="M110.434 17.4322C110.434 16.1637 110.252 15.0588 109.909 14.179C109.567 13.2788 109.083 12.5422 108.498 11.9898C107.914 11.4373 107.248 11.0281 106.543 10.7826C105.837 10.5371 105.111 10.4143 104.366 10.4143C103.116 10.4143 102.007 10.7212 101.059 11.3555C100.132 11.9693 99.3861 12.8491 98.8822 13.9335C98.3782 15.0179 98.1161 16.2864 98.1161 17.6982C98.1161 19.11 98.3782 20.3785 98.9023 21.4424C99.4265 22.5268 100.193 23.3657 101.16 23.9795C102.128 24.5729 103.297 24.8798 104.628 24.8798C105.575 24.8798 106.422 24.7366 107.168 24.4296C107.934 24.1227 108.579 23.6931 109.083 23.1611C109.607 22.6087 109.97 21.9744 110.192 21.2583L110.292 20.9514L107.672 20.2148L107.571 20.4808C107.43 20.89 107.208 21.2378 106.926 21.5038C106.644 21.7698 106.321 21.9949 105.938 22.1176C105.555 22.2609 105.111 22.3222 104.628 22.3222C103.882 22.3222 103.216 22.1586 102.652 21.8312C102.088 21.5038 101.664 21.0128 101.342 20.399C101.1 19.8875 100.938 19.2941 100.878 18.5984H110.393V17.3913L110.434 17.4322ZM101.321 14.9156C101.604 14.3427 102.007 13.8516 102.511 13.4834C103.015 13.1355 103.66 12.9514 104.386 12.9514C105.111 12.9514 105.716 13.1355 106.2 13.4834C106.684 13.8312 107.067 14.3222 107.309 14.9565C107.47 15.3453 107.571 15.7545 107.631 16.2046H100.938C100.999 15.7545 101.12 15.3248 101.321 14.9156Z" fill="#6528D3"/>
<path d="M123.033 12.8082C122.67 12.133 122.187 11.6215 121.622 11.2737C121.078 10.9258 120.493 10.7008 119.888 10.5985C119.304 10.4962 118.78 10.4348 118.336 10.4348C117.63 10.4348 116.925 10.5371 116.199 10.7417C115.473 10.9463 114.788 11.2941 114.183 11.7647C113.578 12.2558 113.074 12.9309 112.712 13.7903L112.591 14.0972L115.191 14.977L115.312 14.7315C115.433 14.445 115.635 14.179 115.897 13.8926C116.139 13.6266 116.481 13.4015 116.885 13.2174C117.288 13.0332 117.792 12.9514 118.376 12.9514C118.961 12.9514 119.404 13.0537 119.767 13.2379C120.13 13.422 120.372 13.6675 120.554 13.9949C120.735 14.3427 120.816 14.7724 120.816 15.3453C120.816 15.6113 120.715 15.7136 120.614 15.7749C120.412 15.8977 120.07 15.9795 119.626 16.0205C119.122 16.0818 118.477 16.1637 117.691 16.266C117.066 16.3478 116.441 16.4501 115.836 16.5934C115.211 16.7366 114.627 16.9616 114.103 17.2481C113.558 17.555 113.115 17.9642 112.792 18.4962C112.47 19.0281 112.288 19.7033 112.288 20.5217C112.288 21.4629 112.51 22.2609 112.933 22.9361C113.357 23.5908 113.961 24.1023 114.687 24.4501C115.413 24.7775 116.219 24.9616 117.086 24.9616C117.872 24.9616 118.558 24.8389 119.122 24.5934C119.687 24.3478 120.15 24.0614 120.513 23.6931C120.634 23.5703 120.755 23.4271 120.856 23.3043V24.6343H123.557V15.4885C123.557 14.3836 123.376 13.5038 123.013 12.8286L123.033 12.8082ZM120.836 18.1074V19.4373C120.836 19.9284 120.715 20.399 120.453 20.8491C120.191 21.2992 119.828 21.6675 119.324 21.954C118.82 22.2404 118.215 22.3836 117.469 22.3836C116.985 22.3836 116.542 22.3018 116.179 22.1586C115.816 22.0153 115.534 21.8107 115.332 21.5448C115.131 21.2788 115.05 20.9719 115.05 20.5627C115.05 20.133 115.151 19.7852 115.373 19.5601C115.594 19.2941 115.917 19.0895 116.32 18.9668C116.743 18.8235 117.207 18.7212 117.691 18.6598L118.517 18.5575C118.88 18.5166 119.243 18.4552 119.626 18.3939C120.009 18.3325 120.352 18.2506 120.654 18.1688C120.715 18.1688 120.775 18.1279 120.836 18.1074Z" fill="#6528D3"/>
<path d="M133.718 10.4348C133.597 10.4348 133.415 10.4348 133.194 10.4143C132.972 10.3939 132.79 10.4143 132.629 10.4143C131.782 10.4143 131.016 10.6394 130.351 11.0895C129.948 11.3555 129.625 11.6624 129.363 12.0307V10.6189H126.702V24.6343H129.424V15.9386C129.424 15.3862 129.545 14.8952 129.807 14.4859C130.069 14.0767 130.412 13.7289 130.855 13.5038C131.319 13.2583 131.823 13.1356 132.407 13.1356C132.669 13.1356 132.932 13.1356 133.173 13.1765C133.415 13.1969 133.556 13.2174 133.617 13.2379L134 13.3402V10.4962H133.718V10.4348Z" fill="#6528D3"/>
</g>
<defs>
<clipPath id="clip0_10001_86">
<rect width="134" height="32" fill="white"/>
</clipPath>
</defs>
</svg>
