<svg width="16" height="20" viewBox="0 0 16 20" fill="none" xmlns="http://www.w3.org/2000/svg">
<path d="M1.92827 20C1.38942 20 0.933333 19.8158 0.56 19.4474C0.186667 19.0789 0 18.6289 0 18.0971V6.11342C0 5.58167 0.186667 5.13158 0.56 4.76316C0.933333 4.39474 1.38942 4.21053 1.92827 4.21053H4V3.94737C4 2.85702 4.3904 1.92649 5.1712 1.15579C5.95218 0.385263 6.89511 0 8 0C9.10489 0 10.0478 0.385263 10.8288 1.15579C11.6096 1.92649 12 2.85702 12 3.94737V4.21053H14.0717C14.6106 4.21053 15.0667 4.39474 15.44 4.76316C15.8133 5.13158 16 5.58167 16 6.11342V18.0971C16 18.6289 15.8133 19.0789 15.44 19.4474C15.0667 19.8158 14.6106 20 14.0717 20H1.92827ZM1.92827 18.4211H14.0717C14.1539 18.4211 14.2291 18.3873 14.2973 18.3197C14.3658 18.2524 14.4 18.1782 14.4 18.0971V6.11342C14.4 6.03237 14.3658 5.95816 14.2973 5.89079C14.2291 5.82325 14.1539 5.78947 14.0717 5.78947H12V8.1579C12 8.38193 11.9234 8.56947 11.7701 8.72053C11.6171 8.87175 11.427 8.94737 11.2 8.94737C10.973 8.94737 10.7829 8.87175 10.6299 8.72053C10.4766 8.56947 10.4 8.38193 10.4 8.1579V5.78947H5.6V8.1579C5.6 8.38193 5.52338 8.56947 5.37013 8.72053C5.21707 8.87175 5.02702 8.94737 4.8 8.94737C4.57298 8.94737 4.38293 8.87175 4.22987 8.72053C4.07662 8.56947 4 8.38193 4 8.1579V5.78947H1.92827C1.84613 5.78947 1.77093 5.82325 1.70267 5.89079C1.63422 5.95816 1.6 6.03237 1.6 6.11342V18.0971C1.6 18.1782 1.63422 18.2524 1.70267 18.3197C1.77093 18.3873 1.84613 18.4211 1.92827 18.4211ZM5.6 4.21053H10.4V3.94737C10.4 3.28754 10.1672 2.72781 9.7016 2.26816C9.236 1.80868 8.6688 1.57895 8 1.57895C7.3312 1.57895 6.764 1.80868 6.2984 2.26816C5.8328 2.72781 5.6 3.28754 5.6 3.94737V4.21053Z" fill="#9856EF"/>
</svg>
