<svg width="20" height="20" viewBox="0 0 20 20" fill="none" xmlns="http://www.w3.org/2000/svg">
<path d="M9.98842 15.9108C10.2889 15.9108 10.5428 15.8071 10.75 15.5997C10.9572 15.3922 11.0608 15.1381 11.0608 14.8374C11.0608 14.5368 10.957 14.283 10.7495 14.0758C10.5419 13.8688 10.2879 13.7653 9.98737 13.7653C9.68684 13.7653 9.43298 13.869 9.22579 14.0766C9.0186 14.2841 8.915 14.5382 8.915 14.8387C8.915 15.1392 9.01877 15.3931 9.22632 15.6003C9.43386 15.8073 9.68789 15.9108 9.98842 15.9108ZM10.0018 20C8.61868 20 7.3186 19.7375 6.10158 19.2126C4.88456 18.6877 3.82596 17.9754 2.92579 17.0755C2.02561 16.1757 1.31289 15.1175 0.787631 13.9011C0.262544 12.6846 0 11.3848 0 10.0018C0 8.61868 0.262456 7.3186 0.787368 6.10158C1.31228 4.88456 2.02465 3.82596 2.92447 2.92579C3.8243 2.02561 4.88246 1.31289 6.09895 0.787631C7.31544 0.262544 8.61518 0 9.99816 0C11.3813 0 12.6814 0.262456 13.8984 0.787368C15.1154 1.31228 16.174 2.02465 17.0742 2.92447C17.9744 3.8243 18.6871 4.88246 19.2124 6.09895C19.7375 7.31544 20 8.61518 20 9.99816C20 11.3813 19.7375 12.6814 19.2126 13.8984C18.6877 15.1154 17.9754 16.174 17.0755 17.0742C16.1757 17.9744 15.1175 18.6871 13.9011 19.2124C12.6846 19.7375 11.3848 20 10.0018 20ZM10 18.4211C12.3509 18.4211 14.3421 17.6053 15.9737 15.9737C17.6053 14.3421 18.4211 12.3509 18.4211 10C18.4211 7.64912 17.6053 5.65789 15.9737 4.02632C14.3421 2.39474 12.3509 1.57895 10 1.57895C7.64912 1.57895 5.65789 2.39474 4.02632 4.02632C2.39474 5.65789 1.57895 7.64912 1.57895 10C1.57895 12.3509 2.39474 14.3421 4.02632 15.9737C5.65789 17.6053 7.64912 18.4211 10 18.4211ZM10.0853 5.49395C10.5709 5.49395 10.9911 5.64684 11.3461 5.95263C11.7011 6.25842 11.8787 6.64061 11.8787 7.09921C11.8787 7.48518 11.7653 7.83061 11.5384 8.13553C11.3118 8.44061 11.0526 8.72474 10.7611 8.98789C10.3789 9.32684 10.0425 9.69974 9.75184 10.1066C9.46114 10.5132 9.3057 10.9662 9.28553 11.4655C9.27868 11.6573 9.34614 11.8179 9.4879 11.9474C9.62965 12.0768 9.79491 12.1416 9.98368 12.1416C10.1861 12.1416 10.3575 12.0741 10.4979 11.9392C10.6382 11.8043 10.728 11.639 10.7671 11.4434C10.8373 11.0817 10.9868 10.7595 11.2155 10.4768C11.4443 10.194 11.6921 9.92518 11.9589 9.67026C12.3426 9.29623 12.6775 8.88851 12.9634 8.44711C13.2496 8.00553 13.3926 7.51307 13.3926 6.96974C13.3926 6.1357 13.064 5.45044 12.4068 4.91395C11.7497 4.37763 10.9825 4.10947 10.1053 4.10947C9.47912 4.10947 8.88868 4.24807 8.33395 4.52526C7.77939 4.80263 7.34754 5.20719 7.03842 5.73895C6.94263 5.90228 6.91193 6.07412 6.94632 6.25447C6.98053 6.435 7.07307 6.57202 7.22395 6.66553C7.41605 6.77237 7.61333 6.8029 7.81579 6.75711C8.01825 6.71114 8.19026 6.59579 8.33184 6.41105C8.54518 6.13439 8.80333 5.91237 9.10632 5.745C9.4093 5.57763 9.73561 5.49395 10.0853 5.49395Z" fill="#9856EF"/>
</svg>
