<svg width="32" height="32" viewBox="0 0 32 32" fill="none" xmlns="http://www.w3.org/2000/svg">
<rect x="1" y="1" width="30" height="30" rx="15" stroke="white" stroke-width="2"/>
<path d="M15.7567 11.8978C13.4901 11.8907 11.6482 13.7258 11.6411 15.9929C11.634 18.26 13.4687 20.1022 15.7353 20.1093C18.0018 20.1165 19.8437 18.2814 19.8508 16.0143C19.858 13.7472 18.0233 11.9049 15.7567 11.8978ZM15.7353 13.3402C17.2059 13.333 18.4016 14.5219 18.4088 15.9929C18.4159 17.4638 17.2273 18.6598 15.7567 18.667C14.2861 18.6741 13.0903 17.4852 13.0832 16.0143C13.076 14.5433 14.2646 13.3473 15.7353 13.3402ZM19.0691 11.73C19.0691 11.2016 19.4974 10.7732 20.0257 10.7732C20.554 10.7732 20.9823 11.2016 20.9823 11.73C20.9823 12.2584 20.554 12.6868 20.0257 12.6868C19.4974 12.6868 19.0691 12.2584 19.0691 11.73ZM23.6987 12.7011C23.638 11.4194 23.3453 10.2841 22.4065 9.34866C21.4713 8.41325 20.3363 8.1205 19.0548 8.05623C17.7341 7.98126 13.7756 7.98126 12.4549 8.05623C11.1771 8.11693 10.042 8.40968 9.10324 9.34509C8.16448 10.2805 7.87535 11.4158 7.8111 12.6975C7.73614 14.0185 7.73614 17.9779 7.8111 19.2989C7.87178 20.5806 8.16448 21.7159 9.10324 22.6513C10.042 23.5867 11.1735 23.8795 12.4549 23.9438C13.7756 24.0187 17.7341 24.0187 19.0548 23.9438C20.3363 23.8831 21.4713 23.5903 22.4065 22.6513C23.3417 21.7159 23.6344 20.5806 23.6987 19.2989C23.7736 17.9779 23.7736 14.0221 23.6987 12.7011ZM21.9925 20.7163C21.7141 21.416 21.1751 21.9551 20.4719 22.2372C19.4189 22.6549 16.9203 22.5585 15.7567 22.5585C14.593 22.5585 12.0909 22.6513 11.0414 22.2372C10.3418 21.9587 9.80285 21.4196 9.52086 20.7163C9.10324 19.6631 9.19961 17.1639 9.19961 16C9.19961 14.8361 9.10681 12.3334 9.52086 11.2837C9.79928 10.584 10.3383 10.0449 11.0414 9.7628C12.0944 9.34509 14.593 9.44148 15.7567 9.44148C16.9203 9.44148 19.4225 9.34866 20.4719 9.7628C21.1715 10.0413 21.7105 10.5804 21.9925 11.2837C22.4101 12.3369 22.3137 14.8361 22.3137 16C22.3137 17.1639 22.4101 19.6666 21.9925 20.7163Z" fill="white"/>
</svg>
