<svg width="32" height="32" viewBox="0 0 32 32" fill="none" xmlns="http://www.w3.org/2000/svg">
<rect x="1" y="1" width="30" height="30" rx="15" stroke="white" stroke-width="2"/>
<path d="M22.7664 14.0604C21.3917 14.0635 20.0483 13.6353 18.9298 12.8352V18.4205C18.9298 19.455 18.6142 20.4645 18.0238 21.3147C17.4333 22.1648 16.5991 22.8149 15.6306 23.1774C14.662 23.54 13.606 23.5994 12.6031 23.3431C11.6002 23.0868 10.7005 22.5336 10.0194 21.7553C9.33827 20.9771 8.91649 20.0051 8.8009 18.9768C8.6853 17.9485 8.8915 16.9108 9.38201 16.0013C9.87252 15.0918 10.6317 14.3542 11.5565 13.8854C12.4813 13.4165 13.5217 13.2446 14.5464 13.3853V16.1951C14.0778 16.0482 13.5748 16.0513 13.1093 16.2076C12.6438 16.3639 12.2376 16.6639 11.9533 17.0609C11.669 17.4578 11.5159 17.9391 11.519 18.433C11.5221 18.9268 11.6815 19.4019 11.972 19.7988C12.2626 20.1957 12.6719 20.4895 13.1405 20.6395C13.6092 20.7896 14.1122 20.7896 14.5777 20.6364C15.0432 20.4833 15.4525 20.1864 15.7399 19.7894C16.0273 19.3925 16.1836 18.9112 16.1836 18.4205V7.5H18.9329C18.9298 7.73129 18.9517 7.9657 18.9923 8.19386C19.0891 8.70331 19.286 9.19089 19.5765 9.62221C19.8671 10.0535 20.242 10.4223 20.6763 10.7036C21.298 11.1131 22.026 11.3318 22.7695 11.3318V14.0635L22.7664 14.0604Z" fill="white"/>
</svg>
