<svg width="20" height="19" viewBox="0 0 20 19" fill="none" xmlns="http://www.w3.org/2000/svg">
<path d="M10 9.09993C8.71667 9.09993 7.61811 8.65447 6.70433 7.76354C5.79033 6.8724 5.33333 5.8012 5.33333 4.54996C5.33333 3.29872 5.79033 2.22764 6.70433 1.33671C7.61811 0.445572 8.71667 0 10 0C11.2833 0 12.3819 0.445572 13.2957 1.33671C14.2097 2.22764 14.6667 3.29872 14.6667 4.54996C14.6667 5.8012 14.2097 6.8724 13.2957 7.76354C12.3819 8.65447 11.2833 9.09993 10 9.09993ZM0 17.025V16.1098C0 15.4732 0.177334 14.8837 0.532 14.3412C0.886667 13.7986 1.36067 13.3816 1.954 13.0899C3.27178 12.4601 4.60122 11.9876 5.94233 11.6726C7.28344 11.3576 8.636 11.2001 10 11.2001C11.364 11.2001 12.7166 11.3576 14.0577 11.6726C15.3988 11.9876 16.7282 12.4601 18.046 13.0899C18.6393 13.3816 19.1133 13.7986 19.468 14.3412C19.8227 14.8837 20 15.4732 20 16.1098V17.025C20 17.5732 19.803 18.0394 19.409 18.4238C19.015 18.8079 18.5368 19 17.9743 19H2.02567C1.46322 19 0.985 18.8079 0.591 18.4238C0.197 18.0394 0 17.5732 0 17.025ZM2 17.05H18V16.1098C18 15.8466 17.9218 15.6028 17.7653 15.3786C17.6089 15.1545 17.3966 14.9717 17.1283 14.83C15.9794 14.2783 14.8081 13.8604 13.6143 13.5761C12.4203 13.2921 11.2156 13.15 10 13.15C8.78444 13.15 7.57967 13.2921 6.38567 13.5761C5.19189 13.8604 4.02056 14.2783 2.87167 14.83C2.60344 14.9717 2.39111 15.1545 2.23467 15.3786C2.07822 15.6028 2 15.8466 2 16.1098V17.05ZM10 7.14994C10.7333 7.14994 11.3611 6.89536 11.8833 6.3862C12.4056 5.87704 12.6667 5.26496 12.6667 4.54996C12.6667 3.83497 12.4056 3.22289 11.8833 2.71373C11.3611 2.20457 10.7333 1.94998 10 1.94998C9.26667 1.94998 8.63889 2.20457 8.11667 2.71373C7.59444 3.22289 7.33333 3.83497 7.33333 4.54996C7.33333 5.26496 7.59444 5.87704 8.11667 6.3862C8.63889 6.89536 9.26667 7.14994 10 7.14994Z" fill="#9856EF"/>
</svg>
