<svg width="32" height="32" viewBox="0 0 32 32" fill="none" xmlns="http://www.w3.org/2000/svg">
<rect x="1" y="1" width="30" height="30" rx="15" stroke="white" stroke-width="2"/>
<path d="M21.3536 10.075C19.8571 8.575 17.8643 7.75 15.7464 7.75C11.375 7.75 7.81786 11.3071 7.81786 15.6786C7.81786 17.075 8.18214 18.4393 8.875 19.6429L7.75 23.75L11.9536 22.6464C13.1107 23.2786 14.4143 23.6107 15.7429 23.6107H15.7464C20.1143 23.6107 23.75 20.0536 23.75 15.6821C23.75 13.5643 22.85 11.575 21.3536 10.075ZM15.7464 22.275C14.5607 22.275 13.4 21.9571 12.3893 21.3571L12.15 21.2143L9.65714 21.8679L10.3214 19.4357L10.1643 19.1857C9.50357 18.1357 9.15714 16.925 9.15714 15.6786C9.15714 12.0464 12.1143 9.08929 15.75 9.08929C17.5107 9.08929 19.1643 9.775 20.4071 11.0214C21.65 12.2679 22.4143 13.9214 22.4107 15.6821C22.4107 19.3179 19.3786 22.275 15.7464 22.275ZM19.3607 17.3393C19.1643 17.2393 18.1893 16.7607 18.0071 16.6964C17.825 16.6286 17.6929 16.5964 17.5607 16.7964C17.4286 16.9964 17.05 17.4393 16.9321 17.575C16.8179 17.7071 16.7 17.725 16.5036 17.625C15.3393 17.0429 14.575 16.5857 13.8071 15.2679C13.6036 14.9179 14.0107 14.9429 14.3893 14.1857C14.4536 14.0536 14.4214 13.9393 14.3714 13.8393C14.3214 13.7393 13.925 12.7643 13.7607 12.3679C13.6 11.9821 13.4357 12.0357 13.3143 12.0286C13.2 12.0214 13.0679 12.0214 12.9357 12.0214C12.8036 12.0214 12.5893 12.0714 12.4071 12.2679C12.225 12.4679 11.7143 12.9464 11.7143 13.9214C11.7143 14.8964 12.425 15.8393 12.5214 15.9714C12.6214 16.1036 13.9179 18.1036 15.9071 18.9643C17.1643 19.5071 17.6571 19.5536 18.2857 19.4607C18.6679 19.4036 19.4571 18.9821 19.6214 18.5179C19.7857 18.0536 19.7857 17.6571 19.7357 17.575C19.6893 17.4857 19.5571 17.4357 19.3607 17.3393Z" fill="white"/>
</svg>
